<svg viewBox="0 0 1600 1560" xmlns="http://www.w3.org/2000/svg" font-family="'Segoe UI', 'Helvetica Neue', Arial, sans-serif">
  <defs>
    <radialGradient id="bgGrad" cx="50%" cy="0%" r="120%">
      <stop offset="0%" stop-color="#13182b"/>
      <stop offset="60%" stop-color="#0a0e1a"/>
      <stop offset="100%" stop-color="#05070f"/>
    </radialGradient>
    <linearGradient id="hostGrad" x1="0" y1="0" x2="0" y2="1">
      <stop offset="0%" stop-color="#161d33" stop-opacity="0.95"/>
      <stop offset="100%" stop-color="#0d1224" stop-opacity="0.95"/>
    </linearGradient>
    <linearGradient id="cardGrad" x1="0" y1="0" x2="0" y2="1">
      <stop offset="0%" stop-color="#1c2440"/>
      <stop offset="100%" stop-color="#141a2e"/>
    </linearGradient>
    <linearGradient id="vswitchGrad" x1="0" y1="0" x2="1" y2="0">
      <stop offset="0%" stop-color="#0f3b5e"/>
      <stop offset="50%" stop-color="#0e5a7d"/>
      <stop offset="100%" stop-color="#0f3b5e"/>
    </linearGradient>
    <linearGradient id="dcGrad" x1="0" y1="0" x2="0" y2="1">
      <stop offset="0%" stop-color="#2a1f4a"/>
      <stop offset="100%" stop-color="#1a1230"/>
    </linearGradient>
    <filter id="neonGlow" x="-50%" y="-50%" width="200%" height="200%">
      <feGaussianBlur stdDeviation="3.5" result="blur"/>
      <feMerge>
        <feMergeNode in="blur"/>
        <feMergeNode in="SourceGraphic"/>
      </feMerge>
    </filter>
    <filter id="softGlow" x="-50%" y="-50%" width="200%" height="200%">
      <feGaussianBlur stdDeviation="2" result="blur"/>
      <feMerge>
        <feMergeNode in="blur"/>
        <feMergeNode in="SourceGraphic"/>
      </feMerge>
    </filter>
    <linearGradient id="titleLine" x1="0" y1="0" x2="1" y2="0">
      <stop offset="0%" stop-color="#00d4ff" stop-opacity="0"/>
      <stop offset="50%" stop-color="#b660ff"/>
      <stop offset="100%" stop-color="#ff5ec4" stop-opacity="0"/>
    </linearGradient>
    <linearGradient id="cloudGrad" x1="0" y1="0" x2="0" y2="1">
      <stop offset="0%" stop-color="#0e1c34"/>
      <stop offset="100%" stop-color="#0a1426"/>
    </linearGradient>
    <linearGradient id="xdrGrad" x1="0" y1="0" x2="1" y2="0">
      <stop offset="0%" stop-color="#1a1f3a"/>
      <stop offset="50%" stop-color="#262c52"/>
      <stop offset="100%" stop-color="#1a1f3a"/>
    </linearGradient>
    <linearGradient id="telDown" x1="0" y1="0" x2="0" y2="1">
      <stop offset="0%" stop-color="#00d4ff" stop-opacity="0.2"/>
      <stop offset="100%" stop-color="#00d4ff"/>
    </linearGradient>
    <linearGradient id="telUp" x1="0" y1="1" x2="0" y2="0">
      <stop offset="0%" stop-color="#b660ff" stop-opacity="0.2"/>
      <stop offset="100%" stop-color="#b660ff"/>
    </linearGradient>
    <marker id="arrDown" viewBox="0 0 10 10" refX="5" refY="9" markerWidth="9" markerHeight="9" orient="auto">
      <path d="M0,0 L10,0 L5,10 z" fill="#00d4ff"/>
    </marker>
    <marker id="arrUp" viewBox="0 0 10 10" refX="5" refY="1" markerWidth="9" markerHeight="9" orient="auto">
      <path d="M0,10 L10,10 L5,0 z" fill="#b660ff"/>
    </marker>
  </defs>

  <rect width="1600" height="1560" fill="url(#bgGrad)"/>

  <g stroke="#1a2238" stroke-width="0.5" opacity="0.35">
    <path d="M0 100 H1600 M0 200 H1600 M0 300 H1600 M0 400 H1600 M0 500 H1600 M0 600 H1600 M0 700 H1600 M0 800 H1600 M0 900 H1600 M0 1000 H1600 M0 1100 H1600 M0 1200 H1600 M0 1300 H1600 M0 1400 H1600 M0 1500 H1600"/>
    <path d="M100 0 V1560 M200 0 V1560 M300 0 V1560 M400 0 V1560 M500 0 V1560 M600 0 V1560 M700 0 V1560 M800 0 V1560 M900 0 V1560 M1000 0 V1560 M1100 0 V1560 M1200 0 V1560 M1300 0 V1560 M1400 0 V1560 M1500 0 V1560"/>
  </g>

  <!-- Title -->
  <g transform="translate(50,55)">
    <text x="0" y="0" fill="#e8eef7" font-size="34" font-weight="700" letter-spacing="0.5">HOME LAB</text>
    <text x="190" y="0" fill="#94a3b8" font-size="34" font-weight="200" letter-spacing="0.5">// Hyper-V Topology</text>
    <text x="0" y="28" fill="#64748b" font-size="14" letter-spacing="2">5 VMs · 1 vSwitch · 1 Domain · Microsoft Cloud Security</text>
    <rect x="0" y="42" width="280" height="2" fill="url(#titleLine)"/>
  </g>

  <g transform="translate(1290,55)" text-anchor="start">
    <circle cx="0" cy="-8" r="5" fill="#4ade80" filter="url(#softGlow)"/>
    <text x="14" y="-3" fill="#94a3b8" font-size="13">Hyper-V Host · Windows 11 Pro / Server</text>
    <text x="14" y="16" fill="#64748b" font-size="12">Type-1 hypervisor · External vSwitch · 192.168.10.0/24</text>
  </g>

  <!-- ============= HYPER-V HOST CONTAINER ============= -->
  <g>
    <rect x="40" y="130" width="1520" height="900" rx="22" fill="url(#hostGrad)" stroke="#2a3450" stroke-width="1.5"/>
    <g stroke="#00d4ff" stroke-width="2" opacity="0.7">
      <path d="M40 158 V130 H68"/>
      <path d="M1560 158 V130 H1532"/>
      <path d="M40 1002 V1030 H68"/>
      <path d="M1560 1002 V1030 H1532"/>
    </g>
    <g transform="translate(70,162)">
      <rect x="0" y="0" width="190" height="32" rx="6" fill="#0a1124" stroke="#00d4ff" stroke-width="1"/>
      <circle cx="16" cy="16" r="4" fill="#00d4ff" filter="url(#softGlow)"/>
      <text x="32" y="21" fill="#cfe9ff" font-size="13" font-weight="600" letter-spacing="1">HYPER-V HOST</text>
    </g>
    <text x="270" y="183" fill="#64748b" font-size="12">parent partition · physical NIC · storage</text>
  </g>

  <!-- ============= VM CARDS ============= -->

  <!-- === Card 1: Server 2025 DC === -->
  <g transform="translate(60,220)">
    <rect width="286" height="600" rx="14" fill="url(#dcGrad)" stroke="#b660ff" stroke-width="1.5"/>
    <rect x="0" y="0" width="286" height="6" rx="3" fill="#b660ff" filter="url(#neonGlow)"/>
    <g transform="translate(22,28)" stroke="#b660ff" stroke-width="1.6" fill="none">
      <rect x="0" y="0" width="38" height="11" rx="2"/>
      <rect x="0" y="15" width="38" height="11" rx="2"/>
      <rect x="0" y="30" width="38" height="11" rx="2"/>
      <circle cx="6" cy="5.5" r="1.4" fill="#b660ff"/>
      <circle cx="6" cy="20.5" r="1.4" fill="#b660ff"/>
      <circle cx="6" cy="35.5" r="1.4" fill="#b660ff"/>
    </g>
    <text x="76" y="42" fill="#e8eef7" font-size="17" font-weight="700">Server Core 2025</text>
    <text x="76" y="62" fill="#b660ff" font-size="12" letter-spacing="1.5" font-weight="600">DOMAIN CONTROLLER</text>
    <line x1="22" y1="86" x2="264" y2="86" stroke="#2a3450"/>
    <text x="22" y="108" fill="#94a3b8" font-size="11" letter-spacing="1.2">ROLE</text>
    <text x="22" y="126" fill="#cbd5e1" font-size="13">AD DS · DNS · DHCP · CA</text>
    <text x="22" y="158" fill="#94a3b8" font-size="11" letter-spacing="1.2">SOFTWARE</text>
    <g font-size="12.5" fill="#e2e8f0">
      <g transform="translate(22,178)"><circle cx="4" cy="-3.5" r="3" fill="#b660ff"/><text x="14" y="0">Windows Server Core 2025</text></g>
      <g transform="translate(22,200)"><circle cx="4" cy="-3.5" r="3" fill="#b660ff"/><text x="14" y="0">PowerShell 7</text></g>
      <g transform="translate(22,222)"><circle cx="4" cy="-3.5" r="3" fill="#b660ff"/><text x="14" y="0">Azure CLI</text></g>
    </g>
    <text x="22" y="324" fill="#94a3b8" font-size="11" letter-spacing="1.2">AZ CLI EXTENSIONS</text>
    <g font-size="11.5" fill="#cbd5e1">
      <rect x="22" y="334" width="58" height="20" rx="10" fill="#0a1124" stroke="#b660ff" stroke-opacity="0.5"/>
      <text x="51" y="348" text-anchor="middle">kql</text>
      <rect x="86" y="334" width="118" height="20" rx="10" fill="#0a1124" stroke="#b660ff" stroke-opacity="0.5"/>
      <text x="145" y="348" text-anchor="middle">log-analytics</text>
      <rect x="210" y="334" width="38" height="20" rx="10" fill="#0a1124" stroke="#b660ff" stroke-opacity="0.5"/>
      <text x="229" y="348" text-anchor="middle">gh</text>
    </g>
    <text x="22" y="386" fill="#94a3b8" font-size="11" letter-spacing="1.2">SECURITY</text>
    <g font-size="12.5" fill="#e2e8f0">
      <g transform="translate(22,406)"><circle cx="4" cy="-3.5" r="3" fill="#4ade80"/><text x="14" y="0">Microsoft Defender for Endpoint</text></g>
    </g>
    <text x="22" y="442" fill="#94a3b8" font-size="11" letter-spacing="1.2">NETWORK</text>
    <g font-size="12.5" fill="#cbd5e1">
      <g transform="translate(22,462)"><text x="0" y="0">FQDN · lab.local</text></g>
      <g transform="translate(22,482)"><text x="0" y="0">IP · 192.168.10.100</text></g>
      <g transform="translate(22,502)"><text x="0" y="0">DNS for lab VMs</text></g>
    </g>
    <rect x="22" y="540" width="242" height="38" rx="8" fill="#0a1124" stroke="#b660ff" stroke-opacity="0.4"/>
    <circle cx="40" cy="559" r="4" fill="#b660ff" filter="url(#softGlow)"/>
    <text x="54" y="564" fill="#cfe9ff" font-size="12" font-weight="600">DOMAIN ANCHOR · lab.local</text>
  </g>

  <!-- === Card 2: WIN11-WSL2 === -->
  <g transform="translate(366,220)">
    <rect width="286" height="600" rx="14" fill="url(#cardGrad)" stroke="#00d4ff" stroke-width="1.5"/>
    <rect x="0" y="0" width="286" height="6" rx="3" fill="#00d4ff" filter="url(#neonGlow)"/>
    <g transform="translate(22,28)" fill="#00d4ff">
      <rect x="0" y="0" width="17" height="17" rx="1"/>
      <rect x="21" y="0" width="17" height="17" rx="1"/>
      <rect x="0" y="21" width="17" height="17" rx="1"/>
      <rect x="21" y="21" width="17" height="17" rx="1"/>
    </g>
    <text x="76" y="42" fill="#e8eef7" font-size="17" font-weight="700">WIN11-WSL2</text>
    <text x="76" y="62" fill="#00d4ff" font-size="12" letter-spacing="1.5" font-weight="600">DEV WORKSTATION</text>
    <line x1="22" y1="86" x2="264" y2="86" stroke="#2a3450"/>
    <text x="22" y="108" fill="#94a3b8" font-size="11" letter-spacing="1.2">ROLE</text>
    <text x="22" y="126" fill="#cbd5e1" font-size="13">WSL2 + Linux dev surface</text>
    <text x="22" y="158" fill="#94a3b8" font-size="11" letter-spacing="1.2">SOFTWARE</text>
    <g font-size="12.5" fill="#e2e8f0">
      <g transform="translate(22,178)"><circle cx="4" cy="-3.5" r="3" fill="#00d4ff"/><text x="14" y="0">Windows 11</text></g>
      <g transform="translate(22,200)"><circle cx="4" cy="-3.5" r="3" fill="#00d4ff"/><text x="14" y="0">PowerShell 7</text></g>
      <g transform="translate(22,222)"><circle cx="4" cy="-3.5" r="3" fill="#00d4ff"/><text x="14" y="0">Azure CLI</text></g>
      <g transform="translate(22,244)"><circle cx="4" cy="-3.5" r="3" fill="#00d4ff"/><text x="14" y="0">VS Code</text></g>
      <g transform="translate(22,266)"><circle cx="4" cy="-3.5" r="3" fill="#00d4ff"/><text x="14" y="0">RSAT (remote admin)</text></g>
      <g transform="translate(22,288)"><circle cx="4" cy="-3.5" r="3" fill="#00d4ff"/><text x="14" y="0">Python 3.13</text></g>
    </g>
    <text x="22" y="324" fill="#94a3b8" font-size="11" letter-spacing="1.2">AZ CLI EXTENSIONS</text>
    <g font-size="11.5" fill="#cbd5e1">
      <rect x="22" y="334" width="58" height="20" rx="10" fill="#0a1124" stroke="#00d4ff" stroke-opacity="0.5"/>
      <text x="51" y="348" text-anchor="middle">kql</text>
      <rect x="86" y="334" width="118" height="20" rx="10" fill="#0a1124" stroke="#00d4ff" stroke-opacity="0.5"/>
      <text x="145" y="348" text-anchor="middle">log-analytics</text>
      <rect x="210" y="334" width="38" height="20" rx="10" fill="#0a1124" stroke="#00d4ff" stroke-opacity="0.5"/>
      <text x="229" y="348" text-anchor="middle">gh</text>
    </g>
    <text x="22" y="386" fill="#94a3b8" font-size="11" letter-spacing="1.2">WSL</text>
    <g font-size="12.5" fill="#e2e8f0">
      <g transform="translate(22,406)"><circle cx="4" cy="-3.5" r="3" fill="#fb923c"/><text x="14" y="0">WSL2 enabled</text></g>
      <g transform="translate(22,426)"><circle cx="4" cy="-3.5" r="3" fill="#fb923c"/><text x="14" y="0">Ubuntu 24.04 LTS</text></g>
    </g>
    <text x="22" y="462" fill="#94a3b8" font-size="11" letter-spacing="1.2">SECURITY</text>
    <g font-size="12.5" fill="#e2e8f0">
      <g transform="translate(22,482)"><circle cx="4" cy="-3.5" r="3" fill="#4ade80"/><text x="14" y="0">MDE</text></g>
      <g transform="translate(22,502)"><circle cx="4" cy="-3.5" r="3" fill="#4ade80"/><text x="14" y="0">MDE WSL2 plugin</text></g>
    </g>
    <rect x="22" y="540" width="242" height="38" rx="8" fill="#0a1124" stroke="#00d4ff" stroke-opacity="0.4"/>
    <circle cx="40" cy="559" r="4" fill="#00d4ff" filter="url(#softGlow)"/>
    <text x="54" y="564" fill="#cfe9ff" font-size="12" font-weight="600">DOMAIN JOINED · lab.local</text>
  </g>

  <!-- === Card 3: WIN11-INTUNE === -->
  <g transform="translate(672,220)">
    <rect width="286" height="600" rx="14" fill="url(#cardGrad)" stroke="#ff5ec4" stroke-width="1.5"/>
    <rect x="0" y="0" width="286" height="6" rx="3" fill="#ff5ec4" filter="url(#neonGlow)"/>
    <g transform="translate(22,28)" fill="#ff5ec4">
      <rect x="0" y="0" width="17" height="17" rx="1"/>
      <rect x="21" y="0" width="17" height="17" rx="1"/>
      <rect x="0" y="21" width="17" height="17" rx="1"/>
      <rect x="21" y="21" width="17" height="17" rx="1"/>
    </g>
    <text x="76" y="42" fill="#e8eef7" font-size="17" font-weight="700">WIN11-INTUNE</text>
    <text x="76" y="62" fill="#ff5ec4" font-size="12" letter-spacing="1.5" font-weight="600">MDM-MANAGED</text>
    <line x1="22" y1="86" x2="264" y2="86" stroke="#2a3450"/>
    <text x="22" y="108" fill="#94a3b8" font-size="11" letter-spacing="1.2">ROLE</text>
    <text x="22" y="126" fill="#cbd5e1" font-size="13">Intune-enrolled · Entra-joined</text>
    <text x="22" y="158" fill="#94a3b8" font-size="11" letter-spacing="1.2">SOFTWARE</text>
    <g font-size="12.5" fill="#e2e8f0">
      <g transform="translate(22,178)"><circle cx="4" cy="-3.5" r="3" fill="#ff5ec4"/><text x="14" y="0">Windows 11</text></g>
      <g transform="translate(22,200)"><circle cx="4" cy="-3.5" r="3" fill="#ff5ec4"/><text x="14" y="0">PowerShell 7</text></g>
      <g transform="translate(22,222)"><circle cx="4" cy="-3.5" r="3" fill="#ff5ec4"/><text x="14" y="0">Azure CLI</text></g>
      <g transform="translate(22,244)"><circle cx="4" cy="-3.5" r="3" fill="#ff5ec4"/><text x="14" y="0">VS Code</text></g>
      <g transform="translate(22,266)"><circle cx="4" cy="-3.5" r="3" fill="#ff5ec4"/><text x="14" y="0">Node.js</text></g>
      <g transform="translate(22,288)"><circle cx="4" cy="-3.5" r="3" fill="#ff5ec4"/><text x="14" y="0">Python 3.13</text></g>
    </g>
    <text x="22" y="324" fill="#94a3b8" font-size="11" letter-spacing="1.2">AZ CLI EXTENSIONS</text>
    <g font-size="11.5" fill="#cbd5e1">
      <rect x="22" y="334" width="58" height="20" rx="10" fill="#0a1124" stroke="#ff5ec4" stroke-opacity="0.5"/>
      <text x="51" y="348" text-anchor="middle">kql</text>
      <rect x="86" y="334" width="118" height="20" rx="10" fill="#0a1124" stroke="#ff5ec4" stroke-opacity="0.5"/>
      <text x="145" y="348" text-anchor="middle">log-analytics</text>
      <rect x="210" y="334" width="38" height="20" rx="10" fill="#0a1124" stroke="#ff5ec4" stroke-opacity="0.5"/>
      <text x="229" y="348" text-anchor="middle">gh</text>
    </g>
    <text x="22" y="386" fill="#94a3b8" font-size="11" letter-spacing="1.2">WSL</text>
    <g font-size="12.5" fill="#e2e8f0">
      <g transform="translate(22,406)"><circle cx="4" cy="-3.5" r="3" fill="#fb923c"/><text x="14" y="0">WSL2 enabled</text></g>
      <g transform="translate(22,426)"><circle cx="4" cy="-3.5" r="3" fill="#fb923c"/><text x="14" y="0">Ubuntu 24.04 LTS</text></g>
    </g>
    <text x="22" y="462" fill="#94a3b8" font-size="11" letter-spacing="1.2">SECURITY</text>
    <g font-size="12.5" fill="#e2e8f0">
      <g transform="translate(22,482)"><circle cx="4" cy="-3.5" r="3" fill="#4ade80"/><text x="14" y="0">MDE</text></g>
      <g transform="translate(22,502)"><circle cx="4" cy="-3.5" r="3" fill="#4ade80"/><text x="14" y="0">MDE WSL2 plugin</text></g>
    </g>
    <rect x="22" y="540" width="242" height="38" rx="8" fill="#0a1124" stroke="#ff5ec4" stroke-opacity="0.4"/>
    <circle cx="40" cy="559" r="4" fill="#ff5ec4" filter="url(#softGlow)"/>
    <text x="54" y="564" fill="#cfe9ff" font-size="12" font-weight="600">ENTRA + INTUNE MANAGED</text>
  </g>

  <!-- === Card 4: WIN11-APPLKR === -->
  <g transform="translate(978,220)">
    <rect width="286" height="600" rx="14" fill="url(#cardGrad)" stroke="#fbbf24" stroke-width="1.5"/>
    <rect x="0" y="0" width="286" height="6" rx="3" fill="#fbbf24" filter="url(#neonGlow)"/>
    <g transform="translate(22,28)" fill="#fbbf24">
      <rect x="0" y="0" width="17" height="17" rx="1"/>
      <rect x="21" y="0" width="17" height="17" rx="1"/>
      <rect x="0" y="21" width="17" height="17" rx="1"/>
      <rect x="21" y="21" width="17" height="17" rx="1"/>
    </g>
    <text x="76" y="42" fill="#e8eef7" font-size="17" font-weight="700">WIN11-APPLKR</text>
    <text x="76" y="62" fill="#fbbf24" font-size="12" letter-spacing="1.5" font-weight="600">APPLOCKER LAB</text>
    <line x1="22" y1="86" x2="264" y2="86" stroke="#2a3450"/>
    <text x="22" y="108" fill="#94a3b8" font-size="11" letter-spacing="1.2">ROLE</text>
    <text x="22" y="126" fill="#cbd5e1" font-size="13">AppLocker / WDAC testing</text>
    <text x="22" y="158" fill="#94a3b8" font-size="11" letter-spacing="1.2">SOFTWARE</text>
    <g font-size="12.5" fill="#e2e8f0">
      <g transform="translate(22,178)"><circle cx="4" cy="-3.5" r="3" fill="#fbbf24"/><text x="14" y="0">Windows 11</text></g>
      <g transform="translate(22,200)"><circle cx="4" cy="-3.5" r="3" fill="#fbbf24"/><text x="14" y="0">PowerShell 7</text></g>
      <g transform="translate(22,222)"><circle cx="4" cy="-3.5" r="3" fill="#fbbf24"/><text x="14" y="0">Azure CLI</text></g>
      <g transform="translate(22,244)"><circle cx="4" cy="-3.5" r="3" fill="#fbbf24"/><text x="14" y="0">VS Code</text></g>
      <g transform="translate(22,266)"><circle cx="4" cy="-3.5" r="3" fill="#fbbf24"/><text x="14" y="0">Node.js</text></g>
      <g transform="translate(22,288)"><circle cx="4" cy="-3.5" r="3" fill="#fbbf24"/><text x="14" y="0">Python 3.13</text></g>
    </g>
    <text x="22" y="324" fill="#94a3b8" font-size="11" letter-spacing="1.2">AZ CLI EXTENSIONS</text>
    <g font-size="11.5" fill="#cbd5e1">
      <rect x="22" y="334" width="58" height="20" rx="10" fill="#0a1124" stroke="#fbbf24" stroke-opacity="0.5"/>
      <text x="51" y="348" text-anchor="middle">kql</text>
      <rect x="86" y="334" width="118" height="20" rx="10" fill="#0a1124" stroke="#fbbf24" stroke-opacity="0.5"/>
      <text x="145" y="348" text-anchor="middle">log-analytics</text>
      <rect x="210" y="334" width="38" height="20" rx="10" fill="#0a1124" stroke="#fbbf24" stroke-opacity="0.5"/>
      <text x="229" y="348" text-anchor="middle">gh</text>
    </g>
    <text x="22" y="386" fill="#94a3b8" font-size="11" letter-spacing="1.2">WSL</text>
    <g font-size="12.5" fill="#e2e8f0">
      <g transform="translate(22,406)"><circle cx="4" cy="-3.5" r="3" fill="#fb923c"/><text x="14" y="0">WSL2 enabled</text></g>
      <g transform="translate(22,426)"><circle cx="4" cy="-3.5" r="3" fill="#fb923c"/><text x="14" y="0">Ubuntu 24.04 LTS</text></g>
    </g>
    <text x="22" y="462" fill="#94a3b8" font-size="11" letter-spacing="1.2">SECURITY</text>
    <g font-size="12.5" fill="#e2e8f0">
      <g transform="translate(22,482)"><circle cx="4" cy="-3.5" r="3" fill="#4ade80"/><text x="14" y="0">MDE</text></g>
      <g transform="translate(22,502)"><circle cx="4" cy="-3.5" r="3" fill="#4ade80"/><text x="14" y="0">MDE WSL2 plugin</text></g>
    </g>
    <rect x="22" y="540" width="242" height="38" rx="8" fill="#0a1124" stroke="#fbbf24" stroke-opacity="0.4"/>
    <circle cx="40" cy="559" r="4" fill="#fbbf24" filter="url(#softGlow)"/>
    <text x="54" y="564" fill="#cfe9ff" font-size="12" font-weight="600">APPLOCKER + WDAC POLICY</text>
  </g>

  <!-- === Card 5: LNX-UBUN === -->
  <g transform="translate(1284,220)">
    <rect width="286" height="600" rx="14" fill="url(#cardGrad)" stroke="#fb923c" stroke-width="1.5"/>
    <rect x="0" y="0" width="286" height="6" rx="3" fill="#fb923c" filter="url(#neonGlow)"/>
    <g transform="translate(40,46)" fill="#fb923c">
      <circle cx="0" cy="0" r="16" fill="none" stroke="#fb923c" stroke-width="1.6"/>
      <circle cx="14" cy="0" r="3"/>
      <circle cx="-7" cy="-12" r="3"/>
      <circle cx="-7" cy="12" r="3"/>
    </g>
    <text x="76" y="42" fill="#e8eef7" font-size="17" font-weight="700">LNX-UBUN</text>
    <text x="76" y="62" fill="#fb923c" font-size="12" letter-spacing="1.5" font-weight="600">LINUX WORKSTATION</text>
    <line x1="22" y1="86" x2="264" y2="86" stroke="#2a3450"/>
    <text x="22" y="108" fill="#94a3b8" font-size="11" letter-spacing="1.2">ROLE</text>
    <text x="22" y="126" fill="#cbd5e1" font-size="13">Linux tooling · scripting host</text>
    <text x="22" y="158" fill="#94a3b8" font-size="11" letter-spacing="1.2">SOFTWARE</text>
    <g font-size="12.5" fill="#e2e8f0">
      <g transform="translate(22,178)"><circle cx="4" cy="-3.5" r="3" fill="#fb923c"/><text x="14" y="0">Ubuntu 24.04 LTS</text></g>
      <g transform="translate(22,200)"><circle cx="4" cy="-3.5" r="3" fill="#fb923c"/><text x="14" y="0">PowerShell 7</text></g>
      <g transform="translate(22,222)"><circle cx="4" cy="-3.5" r="3" fill="#fb923c"/><text x="14" y="0">Azure CLI</text></g>
      <g transform="translate(22,244)"><circle cx="4" cy="-3.5" r="3" fill="#fb923c"/><text x="14" y="0">VS Code</text></g>
      <g transform="translate(22,266)"><circle cx="4" cy="-3.5" r="3" fill="#fb923c"/><text x="14" y="0">Node.js</text></g>
      <g transform="translate(22,288)"><circle cx="4" cy="-3.5" r="3" fill="#fb923c"/><text x="14" y="0">Python 3.13</text></g>
    </g>
    <text x="22" y="324" fill="#94a3b8" font-size="11" letter-spacing="1.2">AZ CLI EXTENSIONS</text>
    <g font-size="11.5" fill="#cbd5e1">
      <rect x="22" y="334" width="58" height="20" rx="10" fill="#0a1124" stroke="#fb923c" stroke-opacity="0.5"/>
      <text x="51" y="348" text-anchor="middle">kql</text>
      <rect x="86" y="334" width="118" height="20" rx="10" fill="#0a1124" stroke="#fb923c" stroke-opacity="0.5"/>
      <text x="145" y="348" text-anchor="middle">log-analytics</text>
      <rect x="210" y="334" width="38" height="20" rx="10" fill="#0a1124" stroke="#fb923c" stroke-opacity="0.5"/>
      <text x="229" y="348" text-anchor="middle">gh</text>
    </g>
    <text x="22" y="386" fill="#94a3b8" font-size="11" letter-spacing="1.2">SHELL</text>
    <g font-size="12.5" fill="#e2e8f0">
      <g transform="translate(22,406)"><circle cx="4" cy="-3.5" r="3" fill="#fb923c"/><text x="14" y="0">bash · zsh · pwsh</text></g>
      <g transform="translate(22,426)"><circle cx="4" cy="-3.5" r="3" fill="#fb923c"/><text x="14" y="0">systemd · apt · snap</text></g>
    </g>
    <text x="22" y="462" fill="#94a3b8" font-size="11" letter-spacing="1.2">SECURITY</text>
    <g font-size="12.5" fill="#e2e8f0">
      <g transform="translate(22,482)"><circle cx="4" cy="-3.5" r="3" fill="#4ade80"/><text x="14" y="0">MDE for Linux</text></g>
      <g transform="translate(22,502)"><circle cx="4" cy="-3.5" r="3" fill="#4ade80"/><text x="14" y="0">auditd · UFW</text></g>
    </g>
    <rect x="22" y="540" width="242" height="38" rx="8" fill="#0a1124" stroke="#fb923c" stroke-opacity="0.4"/>
    <circle cx="40" cy="559" r="4" fill="#fb923c" filter="url(#softGlow)"/>
    <text x="54" y="564" fill="#cfe9ff" font-size="12" font-weight="600">DOMAIN JOINED (realmd/SSSD)</text>
  </g>

  <!-- ============= VM -> vSwitch lines ============= -->
  <g stroke="#00d4ff" stroke-width="1.5" opacity="0.55" fill="none" stroke-dasharray="4 4">
    <path d="M203 820 V880" stroke="#b660ff" stroke-width="2" stroke-dasharray="4 4" opacity="0.75"/>
    <path d="M509 820 V880"/>
    <path d="M815 820 V880"/>
    <path d="M1121 820 V880"/>
    <path d="M1427 820 V880" stroke="#fb923c"/>
  </g>
  <g fill="#0a0e1a" stroke-width="2">
    <circle cx="203" cy="820" r="5" stroke="#b660ff"/>
    <circle cx="509" cy="820" r="5" stroke="#00d4ff"/>
    <circle cx="815" cy="820" r="5" stroke="#ff5ec4"/>
    <circle cx="1121" cy="820" r="5" stroke="#fbbf24"/>
    <circle cx="1427" cy="820" r="5" stroke="#fb923c"/>
  </g>

  <!-- ============= vSWITCH BAR ============= -->
  <g>
    <rect x="120" y="880" width="1360" height="80" rx="14" fill="url(#vswitchGrad)" stroke="#00d4ff" stroke-width="1.5" filter="url(#softGlow)"/>
    <g fill="#7ee8ff" opacity="0.6">
      <circle cx="160" cy="920" r="2"/>
      <circle cx="200" cy="920" r="2"/>
      <circle cx="240" cy="920" r="2"/>
      <circle cx="1240" cy="920" r="2"/>
      <circle cx="1280" cy="920" r="2"/>
      <circle cx="1320" cy="920" r="2"/>
    </g>
    <g transform="translate(160,905)">
      <rect x="0" y="0" width="160" height="32" rx="6" fill="#0a1124" stroke="#00d4ff" stroke-width="1"/>
      <circle cx="16" cy="16" r="4" fill="#00d4ff" filter="url(#softGlow)"/>
      <text x="32" y="21" fill="#cfe9ff" font-size="13" font-weight="600" letter-spacing="1.4">HYPER-V vSWITCH</text>
    </g>
    <text x="380" y="916" fill="#bcdfff" font-size="13" font-weight="600">LAB-EXT</text>
    <text x="380" y="935" fill="#7ea7c4" font-size="11">external switch · 192.168.10.0/24 · DHCP from home router · DNS via DC (192.168.10.100)</text>
    <g transform="translate(1180,905)">
      <rect x="0" y="0" width="280" height="32" rx="6" fill="#0a1124" stroke="#00d4ff" stroke-opacity="0.6"/>
      <text x="14" y="20" fill="#bcdfff" font-size="12" font-weight="600">Home Router  →  Internet</text>
    </g>
  </g>

  <!-- ============= TELEMETRY CORRIDOR ============= -->
  <g>
    <g transform="translate(720,1018)">
      <rect x="0" y="0" width="160" height="24" rx="6" fill="#0a1124" stroke="#7ee8ff" stroke-width="1"/>
      <circle cx="14" cy="12" r="3.5" fill="#7ee8ff" filter="url(#softGlow)"/>
      <text x="28" y="16" fill="#cfe9ff" font-size="11" font-weight="600" letter-spacing="1.2">SECURITY UPLINK</text>
    </g>
    <line x1="765" y1="1050" x2="765" y2="1138" stroke="url(#telDown)" stroke-width="3" stroke-dasharray="6 4" marker-end="url(#arrDown)" filter="url(#softGlow)"/>
    <text x="755" y="1090" text-anchor="end" fill="#7ee8ff" font-size="11" font-weight="600">TELEMETRY</text>
    <text x="755" y="1106" text-anchor="end" fill="#5b95b8" font-size="10">signals · alerts · audit</text>
    <line x1="835" y1="1138" x2="835" y2="1050" stroke="url(#telUp)" stroke-width="3" stroke-dasharray="6 4" marker-end="url(#arrUp)" filter="url(#softGlow)"/>
    <text x="845" y="1090" fill="#d4b1ff" font-size="11" font-weight="600">POLICY · RESPONSE</text>
    <text x="845" y="1106" fill="#9778bf" font-size="10">config · auto-remediation</text>
  </g>

  <!-- ============= MICROSOFT CLOUD SECURITY LAYER ============= -->
  <g>
    <rect x="80" y="1150" width="1440" height="290" rx="18" fill="url(#cloudGrad)" stroke="#3b82f6" stroke-width="1.5" opacity="0.98"/>
    <g stroke="#60a5fa" stroke-width="2" opacity="0.7">
      <path d="M80 1178 V1150 H108"/>
      <path d="M1520 1178 V1150 H1492"/>
      <path d="M80 1412 V1440 H108"/>
      <path d="M1520 1412 V1440 H1492"/>
    </g>
    <g transform="translate(110,1170)">
      <rect x="0" y="0" width="280" height="32" rx="6" fill="#0a1124" stroke="#60a5fa" stroke-width="1"/>
      <circle cx="16" cy="16" r="4" fill="#60a5fa" filter="url(#softGlow)"/>
      <text x="32" y="21" fill="#cfe1ff" font-size="13" font-weight="600" letter-spacing="1.2">MICROSOFT 365 / AZURE CLOUD</text>
    </g>
    <text x="406" y="1191" fill="#64748b" font-size="12">unified XDR · identity · device · app · email</text>

    <!-- XDR banner -->
    <g transform="translate(110,1220)">
      <rect x="0" y="0" width="1380" height="54" rx="10" fill="url(#xdrGrad)" stroke="#b660ff" stroke-width="1.5" filter="url(#softGlow)"/>
      <g transform="translate(22,12)" fill="none" stroke="#d4b1ff" stroke-width="1.8" stroke-linejoin="round">
        <path d="M15 0 L30 6 V18 C30 26 23 30 15 30 C7 30 0 26 0 18 V6 Z"/>
        <path d="M8 16 L13 21 L22 11" stroke="#b660ff" stroke-width="2"/>
      </g>
      <text x="68" y="24" fill="#e8eef7" font-size="17" font-weight="700">Microsoft Defender XDR</text>
      <text x="68" y="44" fill="#a78bd9" font-size="12" letter-spacing="0.8">cross-domain correlation · automated investigation &amp; response · Sentinel-ready</text>
      <g font-size="11" fill="#cbd5e1">
        <rect x="1010" y="14" width="100" height="26" rx="13" fill="#0a1124" stroke="#b660ff" stroke-opacity="0.6"/>
        <text x="1060" y="31" text-anchor="middle">AIR enabled</text>
        <rect x="1118" y="14" width="110" height="26" rx="13" fill="#0a1124" stroke="#b660ff" stroke-opacity="0.6"/>
        <text x="1173" y="31" text-anchor="middle">Sentinel hub</text>
        <rect x="1236" y="14" width="120" height="26" rx="13" fill="#0a1124" stroke="#b660ff" stroke-opacity="0.6"/>
        <text x="1296" y="31" text-anchor="middle">Log Analytics</text>
      </g>
    </g>

    <!-- MDE -->
    <g transform="translate(110,1290)">
      <rect width="267" height="140" rx="12" fill="#0d1426" stroke="#4ade80" stroke-width="1.4"/>
      <rect x="0" y="0" width="267" height="5" rx="2.5" fill="#4ade80" filter="url(#softGlow)"/>
      <g transform="translate(18,22)" fill="none" stroke="#4ade80" stroke-width="1.8">
        <rect x="0" y="0" width="22" height="16" rx="2"/>
        <path d="M11 16 V22 M5 22 H17"/>
      </g>
      <text x="52" y="32" fill="#e8eef7" font-size="14" font-weight="700">MDE</text>
      <text x="52" y="49" fill="#86efac" font-size="10.5" letter-spacing="0.8">DEFENDER FOR ENDPOINT</text>
      <text x="18" y="78" fill="#cbd5e1" font-size="11.5">EDR · ASR · attack surface mgmt</text>
      <text x="18" y="98" fill="#cbd5e1" font-size="11.5">on every VM + WSL2 plugin</text>
      <g font-size="10.5" fill="#86efac">
        <rect x="18" y="110" width="86" height="20" rx="10" fill="#0a1124" stroke="#4ade80" stroke-opacity="0.5"/>
        <text x="61" y="124" text-anchor="middle">EDR + AV</text>
        <rect x="110" y="110" width="86" height="20" rx="10" fill="#0a1124" stroke="#4ade80" stroke-opacity="0.5"/>
        <text x="153" y="124" text-anchor="middle">Live Response</text>
      </g>
    </g>

    <!-- MDCA -->
    <g transform="translate(393,1290)">
      <rect width="267" height="140" rx="12" fill="#0d1426" stroke="#22d3ee" stroke-width="1.4"/>
      <rect x="0" y="0" width="267" height="5" rx="2.5" fill="#22d3ee" filter="url(#softGlow)"/>
      <g transform="translate(18,22)" fill="none" stroke="#22d3ee" stroke-width="1.8">
        <circle cx="8" cy="10" r="6"/>
        <circle cx="18" cy="14" r="5"/>
        <circle cx="13" cy="18" r="4"/>
      </g>
      <text x="52" y="32" fill="#e8eef7" font-size="14" font-weight="700">MDCA</text>
      <text x="52" y="49" fill="#67e8f9" font-size="10.5" letter-spacing="0.8">DEFENDER FOR CLOUD APPS</text>
      <text x="18" y="78" fill="#cbd5e1" font-size="11.5">SaaS discovery · CASB · DLP</text>
      <text x="18" y="98" fill="#cbd5e1" font-size="11.5">session control + shadow IT</text>
      <g font-size="10.5" fill="#67e8f9">
        <rect x="18" y="110" width="100" height="20" rx="10" fill="#0a1124" stroke="#22d3ee" stroke-opacity="0.5"/>
        <text x="68" y="124" text-anchor="middle">App Governance</text>
        <rect x="124" y="110" width="86" height="20" rx="10" fill="#0a1124" stroke="#22d3ee" stroke-opacity="0.5"/>
        <text x="167" y="124" text-anchor="middle">OAuth audit</text>
      </g>
    </g>

    <!-- Entra ID Protection -->
    <g transform="translate(676,1290)">
      <rect width="267" height="140" rx="12" fill="#0d1426" stroke="#a78bfa" stroke-width="1.4"/>
      <rect x="0" y="0" width="267" height="5" rx="2.5" fill="#a78bfa" filter="url(#softGlow)"/>
      <g transform="translate(18,22)" fill="none" stroke="#a78bfa" stroke-width="1.8">
        <circle cx="11" cy="8" r="5"/>
        <path d="M2 22 C2 16 6 14 11 14 C16 14 20 16 20 22"/>
      </g>
      <text x="52" y="32" fill="#e8eef7" font-size="14" font-weight="700">Entra ID Protection</text>
      <text x="52" y="49" fill="#c4b5fd" font-size="10.5" letter-spacing="0.8">IDENTITY THREAT PROTECTION</text>
      <text x="18" y="78" fill="#cbd5e1" font-size="11.5">risk-based CA · sign-in risk</text>
      <text x="18" y="98" fill="#cbd5e1" font-size="11.5">leaked creds · token theft</text>
      <g font-size="10.5" fill="#c4b5fd">
        <rect x="18" y="110" width="86" height="20" rx="10" fill="#0a1124" stroke="#a78bfa" stroke-opacity="0.5"/>
        <text x="61" y="124" text-anchor="middle">Risk policies</text>
        <rect x="110" y="110" width="86" height="20" rx="10" fill="#0a1124" stroke="#a78bfa" stroke-opacity="0.5"/>
        <text x="153" y="124" text-anchor="middle">MFA enforce</text>
      </g>
    </g>

    <!-- MDO -->
    <g transform="translate(959,1290)">
      <rect width="267" height="140" rx="12" fill="#0d1426" stroke="#60a5fa" stroke-width="1.4"/>
      <rect x="0" y="0" width="267" height="5" rx="2.5" fill="#60a5fa" filter="url(#softGlow)"/>
      <g transform="translate(18,22)" fill="none" stroke="#60a5fa" stroke-width="1.8" stroke-linejoin="round">
        <rect x="0" y="3" width="22" height="16" rx="2"/>
        <path d="M0 6 L11 14 L22 6"/>
      </g>
      <text x="52" y="32" fill="#e8eef7" font-size="14" font-weight="700">MDO</text>
      <text x="52" y="49" fill="#93c5fd" font-size="10.5" letter-spacing="0.8">DEFENDER FOR OFFICE 365</text>
      <text x="18" y="78" fill="#cbd5e1" font-size="11.5">Safe Links · Safe Attachments</text>
      <text x="18" y="98" fill="#cbd5e1" font-size="11.5">phish · BEC · ATO detection</text>
      <g font-size="10.5" fill="#93c5fd">
        <rect x="18" y="110" width="100" height="20" rx="10" fill="#0a1124" stroke="#60a5fa" stroke-opacity="0.5"/>
        <text x="68" y="124" text-anchor="middle">Threat Explorer</text>
        <rect x="124" y="110" width="86" height="20" rx="10" fill="#0a1124" stroke="#60a5fa" stroke-opacity="0.5"/>
        <text x="167" y="124" text-anchor="middle">AIR for email</text>
      </g>
    </g>

    <!-- Intune -->
    <g transform="translate(1242,1290)">
      <rect width="248" height="140" rx="12" fill="#0d1426" stroke="#ff5ec4" stroke-width="1.4"/>
      <rect x="0" y="0" width="248" height="5" rx="2.5" fill="#ff5ec4" filter="url(#softGlow)"/>
      <g transform="translate(18,22)" fill="none" stroke="#ff5ec4" stroke-width="1.8" stroke-linejoin="round">
        <rect x="0" y="0" width="14" height="22" rx="2"/>
        <circle cx="7" cy="18" r="1.4" fill="#ff5ec4"/>
        <path d="M18 4 H24 V18 H18"/>
      </g>
      <text x="52" y="32" fill="#e8eef7" font-size="14" font-weight="700">Intune</text>
      <text x="52" y="49" fill="#fbcfe8" font-size="10.5" letter-spacing="0.8">DEVICE MANAGEMENT</text>
      <text x="18" y="78" fill="#cbd5e1" font-size="11.5">MDM · MAM · config profiles</text>
      <text x="18" y="98" fill="#cbd5e1" font-size="11.5">compliance · autopilot</text>
      <g font-size="10.5" fill="#fbcfe8">
        <rect x="18" y="110" width="92" height="20" rx="10" fill="#0a1124" stroke="#ff5ec4" stroke-opacity="0.5"/>
        <text x="64" y="124" text-anchor="middle">Compliance</text>
        <rect x="116" y="110" width="76" height="20" rx="10" fill="#0a1124" stroke="#ff5ec4" stroke-opacity="0.5"/>
        <text x="154" y="124" text-anchor="middle">Policies</text>
      </g>
    </g>
  </g>

  <!-- ============= BOTTOM LEGEND ============= -->
  <g transform="translate(60,1480)">
    <text x="0" y="0" fill="#94a3b8" font-size="11" letter-spacing="2">LEGEND</text>
    <g font-size="12" fill="#cbd5e1">
      <g transform="translate(0,22)"><rect x="0" y="-10" width="14" height="14" rx="3" fill="#b660ff"/><text x="22" y="1">Domain Controller</text></g>
      <g transform="translate(180,22)"><rect x="0" y="-10" width="14" height="14" rx="3" fill="#00d4ff"/><text x="22" y="1">Dev workstation</text></g>
      <g transform="translate(340,22)"><rect x="0" y="-10" width="14" height="14" rx="3" fill="#ff5ec4"/><text x="22" y="1">MDM-managed</text></g>
      <g transform="translate(500,22)"><rect x="0" y="-10" width="14" height="14" rx="3" fill="#fbbf24"/><text x="22" y="1">AppLocker lab</text></g>
      <g transform="translate(660,22)"><rect x="0" y="-10" width="14" height="14" rx="3" fill="#fb923c"/><text x="22" y="1">Linux workstation</text></g>
      <g transform="translate(820,22)"><circle cx="7" cy="-3" r="5" fill="#4ade80"/><text x="22" y="1">Defender for Endpoint</text></g>
      <g transform="translate(1000,22)"><rect x="0" y="-10" width="14" height="14" rx="3" fill="#3b82f6"/><text x="22" y="1">Microsoft Cloud</text></g>
    </g>
  </g>

  <text x="1550" y="1540" text-anchor="end" fill="#475569" font-size="10" letter-spacing="1.5">hyper-v · home-lab · 2026</text>
</svg>
